# xmcd
#
# Track frame offsets:
#	150
#	23130
#	62800
#	72825
#	92190
#	128137
#	145845
#	173617
#
# Disc length: 2585 seconds
#
# Revision: 1
# Processed by: cddbd v1.4PL0 Copyright (c) Steve Scherf et al.
# Submitted via: audiograbber 1.80.04
#
DISCID=6a0a1708
DTITLE=Earl Turbinton and Willie tee - Brothers for Life
DYEAR=1900
DGENRE=Rock
TTITLE0=All Tied Up
TTITLE1=The Real McCoy
TTITLE2=Brothers for Life
TTITLE3=Fat Blues
TTITLE4=Neferdoris
TTITLE5=Kingston Town
TTITLE6=Think of One
TTITLE7=Upside Down Cresent
EXTD=
EXTT0=
EXTT1=
EXTT2=
EXTT3=
EXTT4=
EXTT5=
EXTT6=
EXTT7=
PLAYORDER=
